<?xml version="1.0" encoding="UTF-8"?>
<!DOCTYPE svg PUBLIC "-//W3C//DTD SVG 1.1//EN" "http://www.w3.org/Graphics/SVG/1.1/DTD/svg11.dtd">
<svg xmlns="http://www.w3.org/2000/svg" version="1.1" width="1200px" height="600px" style="shape-rendering:geometricPrecision; text-rendering:geometricPrecision; image-rendering:optimizeQuality; fill-rule:evenodd; clip-rule:evenodd" xmlns:xlink="http://www.w3.org/1999/xlink">
<g><path style="opacity:1" fill="#fefefe" d="M -0.5,-0.5 C 399.5,-0.5 799.5,-0.5 1199.5,-0.5C 1199.5,199.5 1199.5,399.5 1199.5,599.5C 799.5,599.5 399.5,599.5 -0.5,599.5C -0.5,399.5 -0.5,199.5 -0.5,-0.5 Z"/></g>
<g><path style="opacity:1" fill="#282425" d="M 654.5,49.5 C 688.718,46.8426 717.218,58.1759 740,83.5C 743.711,88.5903 746.044,94.257 747,100.5C 748.685,121.724 746.018,142.391 739,162.5C 732.013,185.132 722.513,206.632 710.5,227C 717.724,226.921 724.891,226.088 732,224.5C 740.53,224.587 746.197,228.587 749,236.5C 749.783,245.104 746.616,251.938 739.5,257C 723.7,268.204 706.033,273.37 686.5,272.5C 686.616,288.396 684.782,304.062 681,319.5C 674.154,343.356 658.32,356.522 633.5,359C 610.509,360.067 596.676,349.234 592,326.5C 590.363,321.286 589.363,315.953 589,310.5C 588.654,300.455 587.821,290.455 586.5,280.5C 574.005,285.13 561.338,285.63 548.5,282C 543.41,280.042 538.91,277.208 535,273.5C 523.854,282.131 512.354,282.631 500.5,275C 490.669,266.173 483.169,255.673 478,243.5C 460.117,201.973 450.784,158.639 450,113.5C 453.601,83.5774 469.768,64.4108 498.5,56C 521.881,52.6107 544.714,54.7773 567,62.5C 586.398,53.2184 606.732,50.8851 628,55.5C 636.868,53.1123 645.701,51.1123 654.5,49.5 Z"/></g>
<g><path style="opacity:1" fill="#f8f9fa" d="M 648.5,58.5 C 674.415,55.0448 698.082,60.5448 719.5,75C 725.005,80.172 730.172,85.672 735,91.5C 738.351,98.0852 739.851,105.085 739.5,112.5C 734.98,156.23 720.647,196.397 696.5,233C 700.379,234.934 704.546,235.767 709,235.5C 718.46,234.053 727.96,233.553 737.5,234C 740.961,236.987 741.461,240.487 739,244.5C 722.705,260.487 703.371,266.154 681,261.5C 678.335,280.814 675.668,300.147 673,319.5C 668.541,336.956 657.374,347.123 639.5,350C 621.235,354.448 608.068,348.282 600,331.5C 597.772,325.36 596.439,319.026 596,312.5C 594.98,296.85 594.313,281.183 594,265.5C 578.435,276.91 561.935,278.41 544.5,270C 538.399,265.641 538.066,260.974 543.5,256C 551.443,253.123 559.443,250.456 567.5,248C 570.206,245.629 572.539,242.963 574.5,240C 568.628,238.456 562.961,236.789 557.5,235C 547.869,246.299 537.869,257.299 527.5,268C 520.47,272.59 513.47,272.59 506.5,268C 502.333,265.167 498.833,261.667 496,257.5C 490.553,248.94 485.886,239.94 482,230.5C 472.265,204.162 464.932,177.162 460,149.5C 458.507,136.534 458.173,123.534 459,110.5C 462.643,86.3629 476.143,70.8629 499.5,64C 511.117,62.4462 522.784,62.1128 534.5,63C 546.206,64.9682 557.706,67.8015 569,71.5C 580.383,64.1867 592.883,60.8534 606.5,61.5C 613.233,61.5111 619.899,62.1777 626.5,63.5C 633.937,61.8154 641.27,60.1487 648.5,58.5 Z"/></g>
<g><path style="opacity:1" fill="#437ca2" d="M 654.5,66.5 C 682.829,63.9932 706.662,72.9932 726,93.5C 727.908,96.2154 729.241,99.2154 730,102.5C 728.854,146.938 715.854,187.605 691,224.5C 690.5,224 690,223.5 689.5,223C 692.848,217.625 695.015,211.791 696,205.5C 696.68,192.79 696.18,180.123 694.5,167.5C 695.857,155.511 696.691,143.511 697,131.5C 687.339,103.177 669.172,82.3437 642.5,69C 646.699,68.4723 650.699,67.6389 654.5,66.5 Z"/></g>
<g><path style="opacity:1" fill="#417ba2" d="M 592.5,70.5 C 638.224,67.5614 669.891,87.2281 687.5,129.5C 657.727,127.425 646.227,140.758 653,169.5C 661.62,191.576 672.453,212.409 685.5,232C 678.93,234.238 674.763,238.738 673,245.5C 670.922,270.281 667.922,294.948 664,319.5C 662.067,328.428 656.901,334.595 648.5,338C 640.13,341.408 631.464,342.742 622.5,342C 614.937,338.77 609.771,333.27 607,325.5C 605.344,317.599 604.344,309.599 604,301.5C 603.667,283.167 603.333,264.833 603,246.5C 600.414,237.079 594.248,232.412 584.5,232.5C 587.757,221.98 591.59,211.647 596,201.5C 601.083,181.984 600.416,162.65 594,143.5C 587.141,133.43 577.641,129.596 565.5,132C 558.614,133.517 552.114,136.017 546,139.5C 546.346,116.651 554.513,97.1508 570.5,81C 577.266,76.1151 584.6,72.6151 592.5,70.5 Z"/></g>
<g><path style="opacity:1" fill="#427ba2" d="M 508.5,70.5 C 526.333,70.0619 543.667,72.7285 560.5,78.5C 546.746,94.5735 538.912,113.24 537,134.5C 537.759,157.189 537.426,179.855 536,202.5C 537.687,213.209 542.521,222.209 550.5,229.5C 541.382,239.573 532.382,249.739 523.5,260C 519.667,262.753 515.667,263.086 511.5,261C 500.386,249.863 492.553,236.697 488,221.5C 476.966,190.865 469.799,159.365 466.5,127C 465.403,107.592 472.069,91.5921 486.5,79C 493.461,74.8523 500.795,72.019 508.5,70.5 Z"/></g>
<g><path style="opacity:1" fill="#457da3" d="M 672.5,138.5 C 677.179,138.334 681.845,138.501 686.5,139C 687.624,139.839 688.291,141.006 688.5,142.5C 686.845,150.083 685.845,157.749 685.5,165.5C 687.212,179.459 687.712,193.459 687,207.5C 686.381,210.032 685.381,212.365 684,214.5C 677.745,202.99 671.745,191.323 666,179.5C 661.299,169.663 659.299,159.33 660,148.5C 662.795,143.364 666.962,140.031 672.5,138.5 Z"/></g>
<g><path style="opacity:1" fill="#437ca2" d="M 564.5,140.5 C 570.732,139.939 576.732,140.772 582.5,143C 584.617,144.731 586.117,146.898 587,149.5C 593.762,174.263 591.095,197.93 579,220.5C 577.648,223.72 576.814,227.053 576.5,230.5C 559.728,228.899 549.228,219.899 545,203.5C 544.941,185.502 545.274,167.502 546,149.5C 551.783,145.524 557.95,142.524 564.5,140.5 Z"/></g>
<g><path style="opacity:1" fill="#f3f6f9" d="M 671.5,142.5 C 674.32,142.248 676.986,142.748 679.5,144C 680.519,147.383 679.185,149.717 675.5,151C 672.697,151.755 670.03,151.422 667.5,150C 665.993,149.163 665.493,147.996 666,146.5C 667.5,144.531 669.333,143.198 671.5,142.5 Z"/></g>
<g><path style="opacity:1" fill="#f9fbfc" d="M 569.5,145.5 C 572.85,145.335 576.183,145.502 579.5,146C 584.859,149.334 584.525,152.334 578.5,155C 573.019,155.926 569.353,153.759 567.5,148.5C 567.942,147.261 568.609,146.261 569.5,145.5 Z"/></g>
<g><path style="opacity:1" fill="#477ea4" d="M 688.5,239.5 C 692.339,241.245 696.339,242.745 700.5,244C 709.914,244.624 719.247,244.291 728.5,243C 714.44,253.388 698.94,256.554 682,252.5C 680.476,246.215 682.642,241.882 688.5,239.5 Z"/></g>
<g><path style="opacity:1" fill="#467ea4" d="M 584.5,241.5 C 594.064,242.292 596.564,246.959 592,255.5C 582.486,265.225 570.986,268.725 557.5,266C 554.624,265.562 551.957,264.562 549.5,263C 556.968,261.275 564.302,258.942 571.5,256C 576.354,251.645 580.687,246.812 584.5,241.5 Z"/></g>
<g><path style="opacity:1" fill="#3a81b0" d="M 779.5,373.5 C 795.917,372.935 812.25,373.769 828.5,376C 843.685,378.99 853.518,387.823 858,402.5C 858.498,405.482 858.665,408.482 858.5,411.5C 853.167,411.5 847.833,411.5 842.5,411.5C 841.958,397.118 834.625,388.285 820.5,385C 803.623,381.144 786.956,381.811 770.5,387C 757.96,394.72 755.127,405.22 762,418.5C 764.892,421.057 768.059,423.224 771.5,425C 792.333,430.084 813.333,434.417 834.5,438C 859.162,443.484 867.662,458.317 860,482.5C 855.775,490.052 849.608,495.552 841.5,499C 828.933,503.84 815.933,505.674 802.5,504.5C 784.994,506.141 768.661,502.641 753.5,494C 742.969,485.429 737.969,474.262 738.5,460.5C 743.833,460.5 749.167,460.5 754.5,460.5C 754.617,475.444 761.617,485.611 775.5,491C 779.057,492.408 782.724,493.408 786.5,494C 799.542,494.877 812.542,494.544 825.5,493C 844.191,487.787 850.358,475.953 844,457.5C 839.498,452.663 833.998,449.497 827.5,448C 807.725,444.871 788.058,441.204 768.5,437C 747.805,431.8 739.638,418.634 744,397.5C 746.285,389.549 751.119,383.715 758.5,380C 765.402,377.085 772.402,374.919 779.5,373.5 Z"/></g>
<g><path style="opacity:1" fill="#3b81b0" d="M 928.5,373.5 C 943.918,372.961 959.252,373.794 974.5,376C 1010.87,387.052 1027.37,411.552 1024,449.5C 1021.96,466.186 1014.13,479.353 1000.5,489C 1007.69,494.361 1015.03,499.528 1022.5,504.5C 1019.81,508.021 1016.65,511.021 1013,513.5C 1005.25,508.043 997.42,502.71 989.5,497.5C 964.918,506.753 939.918,507.92 914.5,501C 878.75,488.03 863.583,462.53 869,424.5C 874.768,401.395 888.935,385.895 911.5,378C 917.253,376.314 922.919,374.814 928.5,373.5 Z"/></g>
<g><path style="opacity:1" fill="#7e7c7d" d="M 68.5,376.5 C 68.5,418.167 68.5,459.833 68.5,501.5C 73.1667,501.5 77.8333,501.5 82.5,501.5C 82.1699,483.659 82.5033,465.992 83.5,448.5C 83.5,466.5 83.5,484.5 83.5,502.5C 78.1667,502.5 72.8333,502.5 67.5,502.5C 67.168,460.33 67.5013,418.33 68.5,376.5 Z"/></g>
<g><path style="opacity:1" fill="#242021" d="M 68.5,376.5 C 98.2031,376.049 127.87,376.549 157.5,378C 176.139,384.11 184.639,396.943 183,416.5C 181.873,429.92 175.04,439.087 162.5,444C 157.923,445.644 153.256,446.978 148.5,448C 126.836,448.5 105.169,448.667 83.5,448.5C 82.5033,465.992 82.1699,483.659 82.5,501.5C 77.8333,501.5 73.1667,501.5 68.5,501.5C 68.5,459.833 68.5,418.167 68.5,376.5 Z"/></g>
<g><path style="opacity:1" fill="#367faf" d="M 1049.5,376.5 C 1049.5,414.833 1049.5,453.167 1049.5,491.5C 1080.83,491.5 1112.17,491.5 1143.5,491.5C 1143.5,494.833 1143.5,498.167 1143.5,501.5C 1107.5,501.5 1071.5,501.5 1035.5,501.5C 1035.5,459.833 1035.5,418.167 1035.5,376.5C 1040.17,376.5 1044.83,376.5 1049.5,376.5 Z"/></g>
<g><path style="opacity:1" fill="#fefefe" d="M 930.5,383.5 C 951.309,380.373 970.642,384.207 988.5,395C 1009.36,413.591 1014.86,436.091 1005,462.5C 995.942,480.963 981.108,491.463 960.5,494C 938.261,498.224 918.261,493.557 900.5,480C 885.975,465.093 880.475,447.259 884,426.5C 887.132,411.394 895.299,399.894 908.5,392C 915.607,388.248 922.94,385.415 930.5,383.5 Z"/></g>
<g><path style="opacity:1" fill="#fefefe" d="M 83.5,386.5 C 104.503,386.333 125.503,386.5 146.5,387C 158.108,388.608 165.275,395.108 168,406.5C 170.017,427.32 160.517,437.987 139.5,438.5C 120.833,438.5 102.167,438.5 83.5,438.5C 83.5,421.167 83.5,403.833 83.5,386.5 Z"/></g>
<g><path style="opacity:1" fill="#282425" d="M 441.5,419.5 C 441.5,422.167 441.5,424.833 441.5,427.5C 433.981,427.175 426.648,427.508 419.5,428.5C 419.333,448.169 419.5,467.836 420,487.5C 420.346,489.848 421.513,491.681 423.5,493C 428.736,494.339 434.07,494.839 439.5,494.5C 441.369,496.635 442.036,499.302 441.5,502.5C 433.79,503.956 426.124,503.789 418.5,502C 413.427,500.594 409.927,497.428 408,492.5C 406.545,471.22 406.045,449.887 406.5,428.5C 401.167,428.5 395.833,428.5 390.5,428.5C 390.5,425.5 390.5,422.5 390.5,419.5C 395.833,419.5 401.167,419.5 406.5,419.5C 406.5,410.5 406.5,401.5 406.5,392.5C 410.833,392.5 415.167,392.5 419.5,392.5C 419.5,401.5 419.5,410.5 419.5,419.5C 426.833,419.5 434.167,419.5 441.5,419.5 Z"/></g>
<g><path style="opacity:1" fill="#262223" d="M 223.5,416.5 C 234.658,416.137 245.658,417.304 256.5,420C 279.995,429.818 289.162,447.318 284,472.5C 279.677,489.487 268.843,499.654 251.5,503C 240.202,504.46 228.869,504.793 217.5,504C 188.783,497.095 176.616,478.928 181,449.5C 185.313,435.186 194.48,425.352 208.5,420C 213.646,418.875 218.646,417.709 223.5,416.5 Z"/></g>
<g><path style="opacity:1" fill="#262223" d="M 324.5,417.5 C 334.506,417.334 344.506,417.5 354.5,418C 364.195,419.332 372.361,423.498 379,430.5C 381.706,434.785 382.873,439.452 382.5,444.5C 378.167,444.5 373.833,444.5 369.5,444.5C 368.236,432.742 361.569,426.575 349.5,426C 341.167,425.333 332.833,425.333 324.5,426C 315.19,426.824 309.524,431.658 307.5,440.5C 308.67,447.783 313.004,451.95 320.5,453C 335.161,454.999 349.827,456.999 364.5,459C 386.217,463.591 391.717,475.425 381,494.5C 372.466,500.456 362.966,503.623 352.5,504C 340.471,504.742 328.471,504.409 316.5,503C 306.308,501.004 298.808,495.504 294,486.5C 292.957,483.243 292.457,479.91 292.5,476.5C 296.833,476.5 301.167,476.5 305.5,476.5C 306.987,488.152 313.654,494.652 325.5,496C 336.872,496.826 348.206,496.492 359.5,495C 371.089,491.988 374.923,484.822 371,473.5C 368.592,471.044 365.759,469.211 362.5,468C 347.486,466.065 332.486,464.065 317.5,462C 297.436,459.016 290.936,448.182 298,429.5C 300.323,426.422 303.157,423.922 306.5,422C 312.52,420.036 318.52,418.536 324.5,417.5 Z"/></g>
<g><path style="opacity:1" fill="#262223" d="M 539.5,432.5 C 539.56,433.043 539.893,433.376 540.5,433.5C 541.493,428.88 541.827,424.214 541.5,419.5C 545.5,419.5 549.5,419.5 553.5,419.5C 553.667,449.169 553.5,478.835 553,508.5C 548.489,524.206 537.989,533.04 521.5,535C 509.543,536.532 497.543,536.865 485.5,536C 472.614,535.323 463.114,529.49 457,518.5C 455.855,515.568 455.022,512.568 454.5,509.5C 458.846,509.334 463.179,509.501 467.5,510C 469.736,518.569 475.069,524.236 483.5,527C 495.823,528.947 508.157,528.947 520.5,527C 532.795,523.877 539.462,516.044 540.5,503.5C 541.653,497.347 541.82,491.014 541,484.5C 540.283,485.044 539.783,485.711 539.5,486.5C 531.797,494.137 522.464,498.637 511.5,500C 496.558,501.86 482.225,499.86 468.5,494C 455.511,485.858 449.511,474.025 450.5,458.5C 450.94,434.886 462.94,421.386 486.5,418C 495.5,417.333 504.5,417.333 513.5,418C 524.113,419.47 532.78,424.304 539.5,432.5 Z"/></g>
<g><path style="opacity:1" fill="#252122" d="M 581.5,453.5 C 580.504,469.325 580.17,485.325 580.5,501.5C 576.5,501.5 572.5,501.5 568.5,501.5C 568.5,474.167 568.5,446.833 568.5,419.5C 572.5,419.5 576.5,419.5 580.5,419.5C 580.334,424.511 580.501,429.511 581,434.5C 581.717,433.956 582.217,433.289 582.5,432.5C 587.045,422.881 594.712,417.715 605.5,417C 611.491,416.501 617.491,416.334 623.5,416.5C 623.5,420.167 623.5,423.833 623.5,427.5C 616.159,427.334 608.826,427.5 601.5,428C 589.026,431.971 582.36,440.471 581.5,453.5 Z"/></g>
<g><path style="opacity:1" fill="#272324" d="M 660.5,417.5 C 671.222,417.125 681.889,417.625 692.5,419C 715.308,424.984 726.642,439.818 726.5,463.5C 696.167,463.5 665.833,463.5 635.5,463.5C 636.155,479.998 644.488,490.498 660.5,495C 674.457,498.122 687.79,496.455 700.5,490C 705.183,486.486 708.516,481.986 710.5,476.5C 715.167,475.167 719.833,475.167 724.5,476.5C 719.967,488.533 711.634,496.699 699.5,501C 683.134,505.586 666.8,505.586 650.5,501C 626.38,490.035 617.546,471.535 624,445.5C 631.148,429.521 643.315,420.188 660.5,417.5 Z"/></g>
<g><path style="opacity:1" fill="#b7b6b6" d="M 580.5,419.5 C 581.167,423.833 581.833,428.167 582.5,432.5C 582.217,433.289 581.717,433.956 581,434.5C 580.501,429.511 580.334,424.511 580.5,419.5 Z"/></g>
<g><path style="opacity:1" fill="#fcfbfc" d="M 713.5,455.5 C 687.328,455.831 661.328,455.498 635.5,454.5C 640.166,434.38 652.999,424.38 674,424.5C 690.13,424.394 702.463,431.061 711,444.5C 712.904,447.923 713.737,451.59 713.5,455.5 Z"/></g>
<g><path style="opacity:1" fill="#fcfcfc" d="M 222.5,425.5 C 234.68,424.252 246.347,426.086 257.5,431C 265.689,435.872 270.523,443.039 272,452.5C 275.842,474.345 267.342,488.512 246.5,495C 233.332,497.99 220.666,496.657 208.5,491C 201.088,486.017 196.255,479.184 194,470.5C 189.922,446.617 199.422,431.617 222.5,425.5 Z"/></g>
<g><path style="opacity:1" fill="#fcfcfc" d="M 493.5,425.5 C 506.334,424.353 518.334,426.853 529.5,433C 540.021,442.239 543.521,453.739 540,467.5C 536.741,480.391 528.574,488.224 515.5,491C 500.983,494.301 487.316,492.301 474.5,485C 464.435,475.265 460.935,463.432 464,449.5C 469.193,435.808 479.027,427.808 493.5,425.5 Z"/></g>
<g><path style="opacity:1" fill="#726f70" d="M 541.5,419.5 C 541.827,424.214 541.493,428.88 540.5,433.5C 539.893,433.376 539.56,433.043 539.5,432.5C 540.167,428.167 540.833,423.833 541.5,419.5 Z"/></g>
<g><path style="opacity:1" fill="#6d6b6b" d="M 441.5,419.5 C 442.477,422.287 442.81,425.287 442.5,428.5C 434.833,428.5 427.167,428.5 419.5,428.5C 426.648,427.508 433.981,427.175 441.5,427.5C 441.5,424.833 441.5,422.167 441.5,419.5 Z"/></g>
<g><path style="opacity:1" fill="#737171" d="M 83.5,386.5 C 83.5,403.833 83.5,421.167 83.5,438.5C 102.167,438.5 120.833,438.5 139.5,438.5C 120.674,439.497 101.674,439.83 82.5,439.5C 82.1699,421.659 82.5033,403.992 83.5,386.5 Z"/></g>
<g><path style="opacity:1" fill="#3f3c3d" d="M 635.5,454.5 C 661.328,455.498 687.328,455.831 713.5,455.5C 687.33,456.829 660.997,456.829 634.5,455.5C 634.624,454.893 634.957,454.56 635.5,454.5 Z"/></g>
<g><path style="opacity:1" fill="#a19f9f" d="M 568.5,419.5 C 568.5,446.833 568.5,474.167 568.5,501.5C 572.5,501.5 576.5,501.5 580.5,501.5C 580.17,485.325 580.504,469.325 581.5,453.5C 581.5,469.833 581.5,486.167 581.5,502.5C 576.833,502.5 572.167,502.5 567.5,502.5C 567.169,474.662 567.502,446.995 568.5,419.5 Z"/></g>
<g><path style="opacity:1" fill="#7c7a7a" d="M 540.5,503.5 C 540.822,497.642 540.489,491.975 539.5,486.5C 539.783,485.711 540.283,485.044 541,484.5C 541.82,491.014 541.653,497.347 540.5,503.5 Z"/></g>
<g><path style="opacity:1" fill="#7c7a7a" d="M 439.5,494.5 C 440.209,493.596 441.209,493.263 442.5,493.5C 442.81,496.713 442.477,499.713 441.5,502.5C 442.036,499.302 441.369,496.635 439.5,494.5 Z"/></g>
<g><path style="opacity:1" fill="#95bbd4" d="M 1049.5,376.5 C 1044.83,376.5 1040.17,376.5 1035.5,376.5C 1035.5,418.167 1035.5,459.833 1035.5,501.5C 1071.5,501.5 1107.5,501.5 1143.5,501.5C 1107.34,502.498 1071,502.832 1034.5,502.5C 1034.5,460.167 1034.5,417.833 1034.5,375.5C 1039.69,375.179 1044.69,375.513 1049.5,376.5 Z"/></g>
</svg>
